<?xml version="1.0" encoding="UTF-8"?><svg xmlns="http://www.w3.org/2000/svg" xmlns:xlink="http://www.w3.org/1999/xlink" contentScriptType="text/ecmascript" width="375" zoomAndPan="magnify" contentStyleType="text/css" viewBox="0 0 375 374.999991" height="374.999991" preserveAspectRatio="xMidYMid meet" version="1.0"><defs><clipPath id="clip-0"><path d="M 186 8.195312 L 189 8.195312 L 189 48 L 186 48 Z M 186 8.195312 " clip-rule="nonzero"/></clipPath><clipPath id="clip-1"><path d="M 75 314 L 301 314 L 301 366.695312 L 75 366.695312 Z M 75 314 " clip-rule="nonzero"/></clipPath><clipPath id="clip-2"><path d="M 32.320312 57 L 342.820312 57 L 342.820312 366.695312 L 32.320312 366.695312 Z M 32.320312 57 " clip-rule="nonzero"/></clipPath></defs><path fill="rgb(100%, 39.99939%, 76.858521%)" d="M 219.648438 317.519531 L 166.296875 317.519531 L 166.296875 282.273438 L 219.648438 282.273438 L 219.648438 317.519531 " fill-opacity="1" fill-rule="nonzero"/><path fill="rgb(100%, 39.99939%, 76.858521%)" d="M 136.5625 273.636719 L 121.070312 273.636719 L 121.070312 215.089844 L 85.953125 215.089844 L 85.953125 268.457031 L 72.523438 268.457031 L 72.523438 238.589844 L 36.582031 238.589844 C 45.824219 287.039062 77.832031 327.421875 121.070312 348.183594 L 121.070312 329.035156 L 136.5625 329.035156 L 136.5625 337.636719 L 172.996094 337.636719 L 172.996094 242.191406 L 136.5625 242.191406 L 136.5625 273.636719 " fill-opacity="1" fill-rule="nonzero"/><path fill="rgb(100%, 39.99939%, 76.858521%)" d="M 330.171875 267.09375 L 310.851562 267.09375 L 310.851562 224.355469 L 277.066406 224.355469 L 277.066406 292.675781 L 259.484375 292.675781 L 259.484375 247.742188 L 224.078125 247.742188 L 224.078125 282.425781 L 213.476562 282.425781 L 213.476562 334.226562 L 234.695312 334.226562 L 234.695312 325.621094 L 246.054688 325.621094 L 246.054688 334.226562 L 277.066406 334.226562 L 277.066406 334.550781 C 300.613281 317.679688 319.179688 294.320312 330.171875 267.09375 " fill-opacity="1" fill-rule="nonzero"/><g clip-path="url(#clip-0)"><path stroke-linecap="round" transform="matrix(0.15494, 0, 0, -0.154824, -141.833307, 540.366877)" fill="none" stroke-linejoin="round" d="M 2126.182464 3187.934108 L 2126.182464 3427.0659 " stroke="rgb(3.919983%, 11.759949%, 15.689087%)" stroke-width="15.413" stroke-opacity="1" stroke-miterlimit="10"/></g><path fill="rgb(100%, 39.99939%, 76.858521%)" d="M 194.167969 50.824219 C 194.167969 54.453125 191.226562 57.386719 187.597656 57.386719 C 183.96875 57.386719 181.027344 54.453125 181.027344 50.824219 C 181.027344 47.195312 183.96875 44.261719 187.597656 44.261719 C 191.226562 44.261719 194.167969 47.195312 194.167969 50.824219 " fill-opacity="1" fill-rule="nonzero"/><path stroke-linecap="butt" transform="matrix(0.15494, 0, 0, -0.154824, -141.833307, 540.366877)" fill="none" stroke-linejoin="round" d="M 2168.58796 3161.921776 C 2168.58796 3138.482925 2149.603811 3119.535048 2126.182464 3119.535048 C 2102.761117 3119.535048 2083.776969 3138.482925 2083.776969 3161.921776 C 2083.776969 3185.360628 2102.761117 3204.308505 2126.182464 3204.308505 C 2149.603811 3204.308505 2168.58796 3185.360628 2168.58796 3161.921776 Z M 2168.58796 3161.921776 " stroke="rgb(3.919983%, 11.759949%, 15.689087%)" stroke-width="15.413" stroke-opacity="1" stroke-miterlimit="10"/><path fill="rgb(100%, 39.99939%, 76.858521%)" d="M 147.015625 251.054688 L 147.015625 282.273438 L 166.296875 282.273438 C 169.261719 273.378906 177.664062 266.957031 187.570312 266.957031 C 197.472656 266.957031 205.867188 273.378906 208.839844 282.273438 L 225.554688 282.273438 L 225.554688 251.054688 L 147.015625 251.054688 " fill-opacity="1" fill-rule="nonzero"/><path stroke-linecap="butt" transform="matrix(0.15494, 0, 0, -0.154824, -141.833307, 540.366877)" fill="none" stroke-linejoin="round" d="M 1864.26172 1868.647187 L 1864.26172 1667.007465 L 1988.704957 1667.007465 C 2007.840374 1724.45662 2062.069994 1765.935062 2126.005985 1765.935062 C 2189.916764 1765.935062 2244.095962 1724.45662 2263.281801 1667.007465 L 2371.16118 1667.007465 L 2371.16118 1868.647187 Z M 1864.26172 1868.647187 " stroke="rgb(3.919983%, 11.759949%, 15.689087%)" stroke-width="15.413" stroke-opacity="1" stroke-miterlimit="10"/><path fill="rgb(100%, 39.99939%, 76.858521%)" d="M 219.535156 315.367188 C 219.042969 315.367188 218.609375 315.078125 218.425781 314.625 C 217.984375 313.535156 174.546875 204.183594 183.632812 55.449219 C 183.667969 54.820312 184.1875 54.332031 184.816406 54.332031 L 190.71875 54.332031 C 191.378906 54.332031 191.910156 54.863281 191.910156 55.523438 C 191.910156 57.203125 192.722656 224.765625 262.386719 313.4375 C 262.664062 313.800781 262.71875 314.285156 262.519531 314.695312 C 262.316406 315.109375 261.902344 315.367188 261.441406 315.367188 L 219.535156 315.367188 " fill-opacity="1" fill-rule="nonzero"/><path fill="rgb(0%, 0%, 0%)" d="M 190.71875 53.132812 L 184.816406 53.132812 C 183.558594 53.132812 182.511719 54.121094 182.4375 55.378906 C 177.683594 133.230469 187.410156 199.65625 196.402344 241.667969 C 206.160156 287.234375 217.210938 314.800781 217.320312 315.070312 C 217.683594 315.972656 218.558594 316.566406 219.535156 316.566406 L 261.441406 316.566406 C 262.355469 316.566406 263.191406 316.039062 263.589844 315.222656 C 263.996094 314.402344 263.886719 313.421875 263.324219 312.703125 C 227.113281 266.609375 209.949219 199.207031 201.929688 150.777344 C 193.207031 98.160156 193.105469 55.941406 193.105469 55.523438 C 193.105469 54.203125 192.03125 53.132812 190.71875 53.132812 Z M 190.71875 55.523438 C 190.71875 55.523438 190.71875 224.136719 261.441406 314.175781 L 219.535156 314.175781 C 219.535156 314.175781 175.648438 205.714844 184.816406 55.523438 L 190.71875 55.523438 " fill-opacity="1" fill-rule="nonzero"/><path fill="rgb(100%, 39.99939%, 76.858521%)" d="M 186.535156 160.960938 C 195.144531 253.878906 219.535156 314.175781 219.535156 314.175781 L 242.394531 314.175781 C 232.195312 300.128906 194.640625 241.148438 187.570312 125.871094 L 186.535156 160.960938 " fill-opacity="1" fill-rule="nonzero"/><path stroke-linecap="butt" transform="matrix(0.15494, 0, 0, -0.154824, -141.833307, 540.366877)" fill="none" stroke-linejoin="round" d="M 2107.374795 3120.973169 L 2146.401969 3120.973169 L 2101.399704 2939.265301 L 2154.293123 2939.265301 L 2101.399704 2757.506973 L 2170.226698 2757.506973 L 2109.416915 2575.748645 L 2194.051426 2575.748645 L 2124.846263 2393.990317 L 2225.162236 2393.990317 L 2147.763382 2212.231989 L 2265.853359 2212.231989 L 2178.269119 2030.524121 L 2317.738323 2030.524121 L 2217.296293 1848.765793 L 2383.817279 1848.765793 L 2264.365889 1667.007465 L 2469.308976 1667.007465 L 2332.310485 1460.952459 " stroke="rgb(3.919983%, 11.759949%, 15.689087%)" stroke-width="15.413" stroke-opacity="1" stroke-miterlimit="10"/><path fill="rgb(100%, 39.99939%, 76.858521%)" d="M 113.695312 315.367188 C 113.242188 315.367188 112.820312 315.109375 112.625 314.695312 C 112.425781 314.285156 112.472656 313.800781 112.757812 313.4375 C 182.421875 224.753906 183.230469 57.203125 183.230469 55.523438 C 183.230469 54.863281 183.765625 54.332031 184.425781 54.332031 L 190.320312 54.332031 C 190.949219 54.332031 191.46875 54.820312 191.511719 55.449219 C 200.589844 204.183594 157.160156 313.535156 156.71875 314.625 C 156.535156 315.078125 156.09375 315.367188 155.609375 315.367188 L 113.695312 315.367188 " fill-opacity="1" fill-rule="nonzero"/><path fill="rgb(0%, 0%, 0%)" d="M 190.320312 53.132812 L 184.425781 53.132812 C 183.105469 53.132812 182.035156 54.203125 182.035156 55.523438 C 182.035156 55.941406 181.929688 98.160156 173.214844 150.777344 C 165.191406 199.207031 148.027344 266.609375 111.820312 312.703125 C 111.257812 313.421875 111.148438 314.402344 111.546875 315.222656 C 111.949219 316.039062 112.78125 316.566406 113.695312 316.566406 L 155.609375 316.566406 C 156.582031 316.566406 157.457031 315.972656 157.824219 315.070312 C 157.933594 314.800781 168.984375 287.234375 178.734375 241.667969 C 187.730469 199.65625 197.457031 133.230469 192.703125 55.378906 C 192.625 54.121094 191.578125 53.132812 190.320312 53.132812 Z M 190.320312 55.523438 C 199.484375 205.714844 155.609375 314.175781 155.609375 314.175781 L 113.695312 314.175781 C 184.425781 224.136719 184.425781 55.523438 184.425781 55.523438 L 190.320312 55.523438 " fill-opacity="1" fill-rule="nonzero"/><path fill="rgb(100%, 39.99939%, 76.858521%)" d="M 136.746094 314.175781 C 146.5625 291.660156 183.933594 198.699219 187.570312 80.46875 C 187.863281 70.8125 187.960938 62.542969 187.875 55.523438 L 184.425781 55.523438 C 184.425781 55.523438 184.425781 224.136719 113.695312 314.175781 L 136.746094 314.175781 " fill-opacity="1" fill-rule="nonzero"/><path stroke-linecap="butt" transform="matrix(0.15494, 0, 0, -0.154824, -141.833307, 540.366877)" fill="none" stroke-linejoin="round" d="M 2144.611963 3120.973169 L 2105.635212 3120.973169 L 2150.637477 2939.265301 L 2097.693636 2939.265301 L 2150.637477 2757.506973 L 2081.760061 2757.506973 L 2142.569844 2575.748645 L 2057.884909 2575.748645 L 2127.140496 2393.990317 L 2026.874945 2393.990317 L 2104.248587 2212.231989 L 1986.133399 2212.231989 L 2073.667216 2030.524121 L 1934.298858 2030.524121 L 2034.715676 1848.765793 L 1868.194691 1848.765793 L 1987.64608 1667.007465 L 1782.702993 1667.007465 L 1919.726696 1460.952459 " stroke="rgb(3.919983%, 11.759949%, 15.689087%)" stroke-width="15.413" stroke-opacity="1" stroke-miterlimit="10"/><path fill="rgb(100%, 39.99939%, 76.858521%)" d="M 144.066406 255.066406 C 143.40625 255.066406 142.875 254.53125 142.875 253.875 L 142.875 249.445312 C 142.875 248.789062 143.40625 248.253906 144.066406 248.253906 L 231.070312 248.253906 C 231.730469 248.253906 232.261719 248.789062 232.261719 249.445312 L 232.261719 253.875 C 232.261719 254.53125 231.730469 255.066406 231.070312 255.066406 L 144.066406 255.066406 " fill-opacity="1" fill-rule="nonzero"/><path fill="rgb(0%, 0%, 0%)" d="M 231.070312 247.058594 L 144.066406 247.058594 C 142.75 247.058594 141.675781 248.128906 141.675781 249.445312 L 141.675781 253.875 C 141.675781 255.191406 142.75 256.261719 144.066406 256.261719 L 231.070312 256.261719 C 232.390625 256.261719 233.460938 255.191406 233.460938 253.875 L 233.460938 249.445312 C 233.460938 248.128906 232.390625 247.058594 231.070312 247.058594 Z M 231.070312 249.445312 L 231.070312 253.875 L 144.066406 253.875 L 144.066406 249.445312 L 231.070312 249.445312 " fill-opacity="1" fill-rule="nonzero"/><path fill="rgb(100%, 39.99939%, 76.858521%)" d="M 163.441406 208.382812 C 163.070312 208.382812 162.726562 208.207031 162.503906 207.917969 C 162.273438 207.625 162.195312 207.246094 162.285156 206.886719 C 162.328125 206.738281 166.226562 191.679688 167.15625 187.597656 C 167.277344 187.050781 167.761719 186.664062 168.320312 186.664062 L 206.816406 186.664062 C 207.355469 186.664062 207.835938 187.027344 207.972656 187.554688 L 213.144531 206.882812 C 213.234375 207.238281 213.160156 207.621094 212.9375 207.917969 C 212.707031 208.207031 212.355469 208.382812 211.988281 208.382812 L 163.441406 208.382812 " fill-opacity="1" fill-rule="nonzero"/><path fill="rgb(0%, 0%, 0%)" d="M 206.816406 185.472656 L 168.320312 185.472656 C 167.207031 185.472656 166.238281 186.242188 165.988281 187.328125 C 165.0625 191.398438 161.171875 206.441406 161.128906 206.59375 C 160.949219 207.304688 161.105469 208.0625 161.558594 208.648438 C 162.007812 209.234375 162.707031 209.574219 163.441406 209.574219 L 211.988281 209.574219 C 212.730469 209.574219 213.425781 209.230469 213.882812 208.640625 C 214.335938 208.054688 214.488281 207.289062 214.292969 206.574219 L 209.125 187.246094 C 208.847656 186.199219 207.902344 185.472656 206.816406 185.472656 Z M 206.816406 187.863281 L 211.988281 207.191406 L 163.441406 207.191406 C 163.441406 207.191406 167.375 192.003906 168.320312 187.863281 L 206.816406 187.863281 " fill-opacity="1" fill-rule="nonzero"/><path fill="rgb(100%, 39.99939%, 76.858521%)" d="M 164.535156 200.222656 C 163.875 200.222656 163.34375 199.691406 163.34375 199.03125 L 163.34375 196.015625 C 163.34375 195.355469 163.875 194.824219 164.535156 194.824219 L 210.890625 194.824219 C 211.550781 194.824219 212.089844 195.355469 212.089844 196.015625 L 212.089844 199.03125 C 212.089844 199.691406 211.550781 200.222656 210.890625 200.222656 L 164.535156 200.222656 " fill-opacity="1" fill-rule="nonzero"/><path fill="rgb(0%, 0%, 0%)" d="M 210.890625 193.625 L 164.535156 193.625 C 163.21875 193.625 162.144531 194.695312 162.144531 196.015625 L 162.144531 199.03125 C 162.144531 200.351562 163.21875 201.421875 164.535156 201.421875 L 210.890625 201.421875 C 212.21875 201.421875 213.28125 200.351562 213.28125 199.03125 L 213.28125 196.015625 C 213.28125 194.695312 212.21875 193.625 210.890625 193.625 Z M 210.890625 196.015625 L 210.890625 199.03125 L 164.535156 199.03125 L 164.535156 196.015625 L 210.890625 196.015625 " fill-opacity="1" fill-rule="nonzero"/><path fill="rgb(100%, 39.99939%, 76.858521%)" d="M 182.464844 86.125 C 181.804688 86.125 181.265625 85.59375 181.265625 84.933594 L 181.265625 55.523438 C 181.265625 54.863281 181.804688 54.332031 182.464844 54.332031 L 192.742188 54.332031 C 193.394531 54.332031 193.933594 54.863281 193.933594 55.523438 L 193.933594 84.933594 C 193.933594 85.59375 193.394531 86.125 192.742188 86.125 L 182.464844 86.125 " fill-opacity="1" fill-rule="nonzero"/><path fill="rgb(0%, 0%, 0%)" d="M 192.742188 53.132812 L 182.464844 53.132812 C 181.136719 53.132812 180.074219 54.203125 180.074219 55.523438 L 180.074219 84.933594 C 180.074219 86.253906 181.136719 87.324219 182.464844 87.324219 L 192.742188 87.324219 C 194.054688 87.324219 195.125 86.253906 195.125 84.933594 L 195.125 55.523438 C 195.125 54.203125 194.054688 53.132812 192.742188 53.132812 Z M 192.742188 55.523438 L 192.742188 84.933594 L 182.464844 84.933594 L 182.464844 55.523438 L 192.742188 55.523438 " fill-opacity="1" fill-rule="nonzero"/><path fill="rgb(100%, 39.99939%, 76.858521%)" d="M 194.847656 66.214844 L 180.34375 66.214844 L 180.34375 50.824219 L 194.847656 50.824219 L 194.847656 66.214844 " fill-opacity="1" fill-rule="nonzero"/><path stroke-linecap="butt" transform="matrix(0.15494, 0, 0, -0.154824, -141.833307, 540.366877)" fill="none" stroke-linejoin="round" d="M 2172.974735 3062.514806 L 2079.364982 3062.514806 L 2079.364982 3161.921776 L 2172.974735 3161.921776 Z M 2172.974735 3062.514806 " stroke="rgb(3.919983%, 11.759949%, 15.689087%)" stroke-width="15.413" stroke-opacity="1" stroke-miterlimit="10"/><path fill="rgb(100%, 39.99939%, 76.858521%)" d="M 187.570312 364.816406 C 145.703125 364.816406 106.441406 348.40625 77.03125 318.609375 C 76.589844 318.164062 76.460938 317.503906 76.703125 316.921875 C 76.945312 316.347656 77.511719 315.972656 78.132812 315.972656 L 297.003906 315.972656 C 297.628906 315.972656 298.191406 316.347656 298.433594 316.921875 C 298.675781 317.503906 298.546875 318.164062 298.105469 318.609375 C 268.699219 348.40625 229.4375 364.816406 187.570312 364.816406 " fill-opacity="1" fill-rule="nonzero"/><g clip-path="url(#clip-1)"><path fill="rgb(0%, 0%, 0%)" d="M 297.003906 314.425781 L 78.132812 314.425781 C 76.878906 314.425781 75.753906 315.175781 75.277344 316.324219 C 74.792969 317.480469 75.050781 318.808594 75.929688 319.699219 C 105.636719 349.792969 145.285156 366.363281 187.570312 366.363281 C 229.855469 366.363281 269.503906 349.792969 299.207031 319.699219 C 300.089844 318.808594 300.34375 317.480469 299.859375 316.324219 C 299.382812 315.175781 298.25 314.425781 297.003906 314.425781 Z M 297.003906 317.519531 C 269.128906 345.757812 230.398438 363.265625 187.570312 363.265625 C 144.738281 363.265625 106.011719 345.757812 78.132812 317.519531 L 297.003906 317.519531 " fill-opacity="1" fill-rule="nonzero"/></g><path fill="rgb(100%, 39.99939%, 76.858521%)" d="M 274.417969 336.410156 L 100.71875 336.410156 C 125.425781 353.347656 155.335938 363.265625 187.570312 363.265625 C 219.800781 363.265625 249.710938 353.347656 274.417969 336.410156 " fill-opacity="1" fill-rule="nonzero"/><g clip-path="url(#clip-2)"><path stroke-linecap="round" transform="matrix(0.15494, 0, 0, -0.154824, -141.833307, 540.366877)" fill="none" stroke-linejoin="round" d="M 2280.702846 3106.137814 C 2755.205718 3031.834888 3118.123142 2621.289148 3118.123142 2125.995181 C 3118.123142 1578.045796 2673.949527 1133.868205 2126.005985 1133.868205 C 1578.087654 1133.868205 1133.863616 1578.045796 1133.863616 2125.995181 C 1133.863616 2624.821375 1501.949368 3037.612603 1981.368454 3107.651626 " stroke="rgb(3.919983%, 11.759949%, 15.689087%)" stroke-width="20" stroke-opacity="1" stroke-miterlimit="10"/></g></svg>